#N canvas 663 89 757 514 12;
#X obj 200 80 inlet;
#X obj 200 130 pair;
#X obj 200 180 coll markovMatrix;
#C restore;
#X obj 330 120 r reset;
#X msg 330 150 clear;
#X connect 0 0 1 0;
#X connect 1 0 2 0;
#X connect 3 0 4 0;
#X connect 4 0 2 0;
