#N canvas 651 58 713 464 12;
#X obj 150 -370 inlet;
#X obj 150 -270 seq;
#X obj 230 -370 inlet;
#X msg 230 -310 start 10000;
#X obj 150 -230 midiparse, f 14;
#X obj 150 -190 stripnote;
#X floatatom 150 -110 5 0 0 0 - - -, f 5;
#X obj 150 -70 outlet;
#X text 150 -40 midi pitch out;
#X obj 150 -340 openpanel;
#X obj 150 -150 unpack f f;
#X msg 150 -310 read \$1;
#X obj 30 -70 print midiread;
#X connect 0 0 9 0;
#X connect 1 0 4 0;
#X connect 2 0 3 0;
#X connect 3 0 1 0;
#X connect 4 0 5 0;
#X connect 5 0 10 0;
#X connect 6 0 7 0;
#X connect 9 0 11 0;
#X connect 10 0 6 0;
#X connect 10 0 12 0;
#X connect 11 0 1 0;
