#N canvas 509 160 613 506 12;
#X obj 100 80 inlet;
#X floatatom 100 130 5 0 0 0 - - -, f 5;
#X obj 100 180 t f b f;
#X obj 100 230 f;
#X obj 100 280 pack f f;
#X obj 100 340 outlet;
#X text 210 150 takes a stream of numbers and outputs them into adjacent
pairs, f 34;
#X connect 0 0 1 0;
#X connect 1 0 2 0;
#X connect 2 0 3 1;
#X connect 2 1 3 0;
#X connect 2 2 4 1;
#X connect 3 0 4 0;
#X connect 4 0 5 0;
