#N canvas 575 25 743 612 12;
#X obj 200 80 inlet;
#X obj 200 120 bng 29 250 50 0 empty empty empty 17 7 0 10 #fcfcfc
#000000 #000000;
#X obj 400 80 inlet;
#X msg 400 120 next;
#X obj 400 150 coll markovMatrix;
#C restore;
#X floatatom 400 180 5 0 0 0 - - -, f 5;
#X obj 200 200 f;
#X obj 200 230 t f f;
#X obj 120 270 coll markovMatrix;
#C restore;
#X obj 120 310 length;
#X obj 120 350 t b f;
#X obj 120 380 random;
#X obj 120 410 + 1;
#X obj 230 430 pack f f;
#X msg 230 470 nth \$2 \$1;
#X obj 230 500 coll markovMatrix;
#C restore;
#X floatatom 430 530 5 0 0 0 - - -, f 5;
#X obj 430 560 outlet;
#X obj 460 80 r end;
#X connect 0 0 1 0;
#X connect 1 0 6 0;
#X connect 2 0 3 0;
#X connect 3 0 4 0;
#X connect 4 0 5 0;
#X connect 5 0 6 1;
#X connect 6 0 7 0;
#X connect 7 0 8 0;
#X connect 7 1 13 1;
#X connect 8 0 9 0;
#X connect 9 0 10 0;
#X connect 10 0 11 0;
#X connect 10 1 11 1;
#X connect 11 0 12 0;
#X connect 12 0 13 0;
#X connect 13 0 14 0;
#X connect 14 0 15 0;
#X connect 15 0 16 0;
#X connect 16 0 17 0;
#X connect 16 0 6 1;
#X connect 18 0 3 0;
