#N canvas 699 174 674 560 12;
#X obj 100 80 inlet;
#X text 100 50 midi note value;
#X floatatom 100 130 5 0 0 0 - - -, f 5;
#X obj 100 230 mtof;
#X floatatom 100 260 5 0 0 0 - - -, f 5;
#X obj 100 310 osc~;
#X obj 300 80 inlet;
#X text 300 50 midi offset;
#X floatatom 100 200 5 0 0 0 - - -, f 5;
#X obj 100 440 outlet~;
#X obj 100 170 +;
#X obj 100 360 *~ 0.25;
#X floatatom 300 160 5 0 0 0 - - -, f 5;
#X obj 300 130 f, f 5;
#X obj 300 110 bng 15 250 50 0 empty empty empty 17 7 0 10 #fcfcfc
#000000 #000000;
#X obj 500 80 inlet;
#X text 500 50 mute voice toggle;
#X obj 100 400 *~;
#X floatatom 200 380 5 0 0 0 - - -, f 5;
#X obj 200 250 loadbang;
#X connect 0 0 2 0;
#X connect 2 0 10 0;
#X connect 3 0 4 0;
#X connect 4 0 5 0;
#X connect 5 0 11 0;
#X connect 6 0 13 1;
#X connect 6 0 14 0;
#X connect 8 0 3 0;
#X connect 10 0 8 0;
#X connect 11 0 17 0;
#X connect 12 0 10 1;
#X connect 13 0 12 0;
#X connect 14 0 13 0;
#X connect 15 0 18 0;
#X connect 17 0 9 0;
#X connect 18 0 17 1;
